<svg xmlns="http://www.w3.org/2000/svg" width="56" height="82">
    <path fill="#FFF" fill-rule="evenodd" d="M28 82C12.561 82 0 69.38 0 53.867c0-6.176 1.404-12.834 4.172-19.788 2.186-5.49 5.225-11.183 9.034-16.924C19.665 7.419 26.041.976 26.309.707a2.383 2.383 0 0 1 2.606-.521 2.404 2.404 0 0 1 1.476 2.219v20.134c0 2.932 2.374 5.316 5.292 5.316 2.917 0 5.292-2.384 5.292-5.316 0-1.079.714-2.025 1.748-2.314a2.385 2.385 0 0 1 2.688 1.071C52.437 32.979 56 43.937 56 53.867 56 69.38 43.439 82 28 82zm15.913-53.631c-1.826 2.595-4.835 4.291-8.231 4.291-5.554 0-10.073-4.54-10.073-10.121V8.637a120.564 120.564 0 0 0-8.476 11.261C11.498 28.406 4.782 41.205 4.782 53.867 4.782 66.73 15.198 77.196 28 77.196c12.803 0 23.218-10.466 23.218-23.329 0-7.762-2.455-16.321-7.305-25.498zm-2.35 27.276a2.397 2.397 0 0 1-2.391-2.403V48.75L27.267 60.712a2.389 2.389 0 0 1-3.382 0l-5.552-5.579-3.742 3.759a2.383 2.383 0 0 1-3.382 0 2.412 2.412 0 0 1 .001-3.398l5.433-5.457a2.383 2.383 0 0 1 3.381 0l5.552 5.578 10.215-10.263h-4.472a2.396 2.396 0 0 1-2.39-2.403 2.396 2.396 0 0 1 2.39-2.401h10.244a2.397 2.397 0 0 1 2.391 2.403v10.291a2.397 2.397 0 0 1-2.391 2.403z"/>
</svg>
